<svg width="18" height="18" viewBox="0 0 18 18" fill="none" xmlns="http://www.w3.org/2000/svg">
<g clip-path="url(#clip0_2_8905)">
<path d="M12.75 15.7493C11.5097 15.7483 10.2887 15.4417 9.195 14.8568L8.8575 14.6693C6.52556 13.4156 4.61377 11.5038 3.36 9.17185L3.1725 8.83435C2.57237 7.73438 2.25535 6.50237 2.25 5.24935V4.74685C2.24968 4.34706 2.40897 3.9637 2.6925 3.68185L3.96 2.41435C4.08309 2.2903 4.25685 2.2305 4.43022 2.25254C4.60358 2.27458 4.75686 2.37594 4.845 2.52685L6.5325 5.42185C6.70315 5.71651 6.65387 6.08916 6.4125 6.32935L4.995 7.74685C4.87728 7.86327 4.84985 8.04312 4.9275 8.18935L5.19 8.68435C6.13278 10.4307 7.56695 11.8622 9.315 12.8018L9.81 13.0718C9.95623 13.1495 10.1361 13.1221 10.2525 13.0043L11.67 11.5868C11.9102 11.3455 12.2828 11.2962 12.5775 11.4668L15.4725 13.1543C15.6234 13.2425 15.7248 13.3958 15.7468 13.5691C15.7688 13.7425 15.7091 13.9163 15.585 14.0393L14.3175 15.3068C14.0357 15.5904 13.6523 15.7497 13.2525 15.7493H12.75Z" fill="#B5B5B6"/>
</g>
<defs>
<clipPath id="clip0_2_8905">
<rect width="18" height="18" fill="white"/>
</clipPath>
</defs>
</svg>
